<?xml version="1.0" encoding="UTF-8"?>
<svg xmlns="http://www.w3.org/2000/svg" xmlns:xlink="http://www.w3.org/1999/xlink" width="141.732" height="85.0394" viewBox="0 0 141.732 85.0394">
<path fill-rule="nonzero" fill="rgb(13.729858%, 12.159729%, 12.548828%)" fill-opacity="1" d="M 70.371094 7.8125 C 66.480469 7.8125 63.316406 12.398438 63.316406 18.042969 C 63.316406 23.683594 66.480469 28.273438 70.371094 28.273438 C 74.261719 28.273438 77.425781 23.683594 77.425781 18.042969 C 77.425781 12.398438 74.261719 7.8125 70.371094 7.8125 M 70.371094 28.894531 C 66.136719 28.894531 62.695312 24.023438 62.695312 18.042969 C 62.695312 12.058594 66.136719 7.191406 70.371094 7.191406 C 74.601562 7.191406 78.046875 12.058594 78.046875 18.042969 C 78.046875 24.023438 74.601562 28.894531 70.371094 28.894531 "/>
<path fill-rule="nonzero" fill="rgb(13.729858%, 12.159729%, 12.548828%)" fill-opacity="1" d="M 68.300781 12.761719 C 68.472656 13.71875 69.046875 12.515625 69.433594 12.386719 C 69.574219 12.339844 69.652344 12.492188 69.773438 12.527344 C 69.964844 12.613281 70.085938 12.460938 70.226562 12.359375 C 70.410156 12.292969 70.460938 12.351562 70.582031 12.5 C 70.863281 12.773438 71.148438 12.261719 71.347656 12.347656 C 71.480469 12.394531 71.640625 12.636719 71.777344 12.777344 C 72.433594 13.433594 72.601562 12.707031 72.339844 12.148438 C 72.105469 11.496094 71.234375 11.878906 70.84375 11.460938 C 70.5 11.113281 70.691406 10.5625 70.582031 10.132812 C 70.570312 10.011719 70.414062 9.964844 70.339844 9.976562 C 69.949219 10.074219 70.070312 10.734375 69.992188 11.03125 C 69.96875 11.21875 69.972656 11.449219 69.808594 11.539062 C 69.199219 11.8125 68.148438 11.765625 68.296875 12.746094 Z M 68.300781 12.761719 "/>
<path fill-rule="nonzero" fill="rgb(13.729858%, 12.159729%, 12.548828%)" fill-opacity="1" d="M 67.035156 16.316406 C 67.296875 16.355469 67.492188 16.109375 67.558594 15.859375 C 67.617188 15.660156 67.742188 15.496094 67.929688 15.507812 C 68.160156 15.519531 68.394531 15.683594 68.625 15.578125 C 68.972656 15.4375 68.890625 14.808594 69.355469 14.847656 C 69.558594 14.851562 69.753906 14.828125 69.882812 14.660156 C 70.070312 14.519531 70.203125 13.714844 70.492188 14.058594 C 70.667969 14.394531 70.925781 14.96875 71.417969 14.90625 C 71.511719 14.902344 71.628906 14.875 71.710938 14.917969 C 71.925781 15.046875 71.917969 15.550781 72.226562 15.636719 C 72.679688 15.734375 72.566406 14.902344 72.941406 15.496094 C 73.117188 15.699219 73.226562 16.109375 73.464844 16.253906 C 73.617188 16.335938 73.878906 16.277344 73.980469 16.140625 C 74.101562 15.972656 74.007812 15.714844 73.929688 15.527344 C 73.398438 14.238281 71.859375 14.113281 70.839844 13.480469 C 70.675781 13.367188 70.550781 13.171875 70.503906 13.003906 C 70.472656 12.925781 70.421875 12.792969 70.320312 12.8125 C 70.265625 12.820312 70.214844 12.882812 70.175781 12.957031 C 69.589844 14.351562 67.40625 13.988281 66.855469 15.429688 C 66.699219 15.765625 66.558594 16.136719 66.984375 16.304688 Z M 67.035156 16.316406 "/>
<path fill-rule="nonzero" fill="rgb(13.729858%, 12.159729%, 12.548828%)" fill-opacity="1" d="M 66.832031 19.148438 C 67.183594 19.054688 67.269531 18.515625 67.492188 18.292969 C 67.597656 18.191406 67.78125 18.304688 67.898438 18.363281 C 68.019531 18.417969 68.152344 18.441406 68.277344 18.378906 C 68.757812 18.148438 68.753906 17.304688 69.367188 17.292969 C 69.542969 17.273438 69.71875 17.261719 69.878906 17.191406 C 70.097656 17.121094 70.183594 16.710938 70.535156 16.921875 C 70.691406 17.019531 70.75 17.199219 70.925781 17.261719 C 71.09375 17.335938 71.3125 17.328125 71.484375 17.347656 C 71.621094 17.367188 71.703125 17.390625 71.824219 17.460938 C 71.925781 17.519531 72.011719 17.636719 72.03125 17.722656 C 72.070312 17.894531 72.054688 17.929688 72.078125 18.019531 C 72.15625 18.386719 72.503906 18.324219 72.867188 18.277344 C 73.410156 18.152344 73.433594 18.660156 73.632812 18.992188 C 73.835938 19.285156 74.328125 19.226562 74.511719 18.945312 C 75.078125 17.007812 71.03125 16.824219 70.484375 15.117188 C 70.242188 14.652344 70.128906 15.492188 69.960938 15.605469 C 69.035156 16.8125 67.167969 16.773438 66.308594 18.078125 C 66.023438 18.5 66.207031 19.21875 66.78125 19.160156 Z M 66.832031 19.148438 "/>
<path fill-rule="nonzero" fill="rgb(13.729858%, 12.159729%, 12.548828%)" fill-opacity="1" d="M 75.511719 21.648438 L 75.492188 21.605469 C 75.15625 21.050781 74.34375 20.960938 73.804688 20.65625 C 73.253906 20.351562 72.726562 19.902344 72.246094 19.53125 C 71.472656 19.039062 70.878906 18.355469 70.492188 17.652344 C 70.316406 17.441406 70.1875 17.699219 70.109375 17.882812 C 69.9375 18.199219 69.664062 18.4375 69.429688 18.710938 C 68.476562 19.785156 67.296875 20.777344 65.875 21.117188 C 65.507812 21.230469 65.117188 21.617188 65.21875 22.035156 C 65.273438 22.410156 65.632812 22.664062 65.992188 22.503906 C 66.292969 22.367188 66.398438 21.90625 66.789062 22.003906 C 67 22.027344 67.238281 22.109375 67.433594 22 C 67.648438 21.882812 67.710938 21.625 67.8125 21.421875 C 67.914062 21.199219 68.15625 21.128906 68.382812 21.144531 C 68.664062 21.171875 69.070312 21.113281 69.113281 20.761719 C 69.136719 20.683594 69.070312 20.320312 69.167969 20.214844 C 69.328125 20.023438 69.714844 20.140625 69.90625 19.972656 C 70.011719 19.894531 70.074219 19.710938 70.121094 19.605469 C 70.144531 19.558594 70.148438 19.546875 70.148438 19.566406 C 70.132812 19.734375 70.082031 20.253906 70.015625 20.933594 C 69.851562 22.644531 69.585938 25.335938 69.550781 25.742188 L 71.164062 25.742188 C 71.054688 24.046875 70.707031 21.050781 70.59375 19.605469 C 70.578125 19.484375 70.660156 19.800781 70.734375 19.878906 C 70.824219 19.96875 70.921875 20.101562 71.039062 20.109375 C 71.246094 20.128906 71.480469 20.039062 71.605469 20.148438 C 71.707031 20.226562 71.710938 20.347656 71.695312 20.46875 C 71.640625 20.828125 71.824219 21.195312 72.214844 21.167969 C 72.4375 21.164062 72.691406 21.070312 72.894531 21.195312 C 73.1875 21.394531 73.074219 22 73.5 22.078125 C 73.609375 22.097656 73.738281 22.113281 73.847656 22.070312 C 73.96875 22.039062 74.058594 21.890625 74.175781 21.894531 C 74.339844 21.929688 74.410156 22.207031 74.550781 22.355469 C 75.042969 22.960938 75.675781 22.214844 75.511719 21.648438 "/>
<path fill-rule="nonzero" fill="rgb(13.729858%, 12.159729%, 12.548828%)" fill-opacity="1" d="M 22.269531 52.644531 C 24.894531 52.644531 26.851562 52.058594 28.140625 50.886719 C 29.425781 49.71875 30.070312 47.808594 30.070312 45.15625 C 30.070312 42.503906 29.445312 40.585938 28.199219 39.402344 C 26.949219 38.222656 25.105469 37.628906 22.660156 37.628906 L 19.617188 37.628906 L 19.617188 52.644531 Z M 13.886719 62.117188 L 13.886719 41.996094 C 13.886719 39.996094 13.78125 38.28125 13.574219 36.847656 L 22.660156 36.847656 C 26.820312 36.847656 30.070312 37.488281 32.410156 38.761719 C 34.75 40.035156 35.917969 42.167969 35.917969 45.15625 C 35.917969 48.171875 34.730469 50.316406 32.351562 51.589844 C 29.972656 52.863281 26.613281 53.5 22.269531 53.5 L 19.617188 53.5 L 19.617188 62.117188 C 19.617188 64.121094 19.722656 65.835938 19.929688 67.265625 L 13.574219 67.265625 C 13.78125 65.835938 13.886719 64.121094 13.886719 62.117188 "/>
<path fill-rule="nonzero" fill="rgb(13.729858%, 12.159729%, 12.548828%)" fill-opacity="1" d="M 35.019531 74.832031 C 35.277344 73.195312 36.058594 72.375 37.359375 72.375 C 37.851562 72.375 38.273438 72.484375 38.625 72.707031 C 38.976562 72.925781 39.371094 73.257812 39.816406 73.699219 C 40.28125 74.167969 40.710938 74.527344 41.101562 74.773438 C 41.492188 75.019531 41.984375 75.144531 42.582031 75.144531 C 43.542969 75.144531 44.402344 74.734375 45.15625 73.914062 C 45.910156 73.097656 46.664062 71.710938 47.417969 69.761719 L 48.433594 67.265625 L 45.3125 67.265625 L 40.476562 52.992188 C 39.855469 51.019531 39.097656 49.09375 38.214844 47.222656 L 44.730469 47.222656 C 44.675781 48.339844 44.765625 49.453125 45 50.554688 C 45.234375 51.664062 45.574219 52.914062 46.015625 54.320312 L 49.5625 64.417969 L 52.449219 57.011719 C 53.175781 55.242188 53.539062 53.878906 53.539062 52.914062 C 53.539062 52.472656 53.46875 52.085938 53.328125 51.746094 C 53.183594 51.410156 52.96875 51.019531 52.683594 50.578125 C 52.421875 50.1875 52.226562 49.847656 52.097656 49.5625 C 51.96875 49.277344 51.902344 48.953125 51.902344 48.585938 C 51.902344 47.988281 52.085938 47.527344 52.449219 47.203125 C 52.8125 46.878906 53.28125 46.714844 53.851562 46.714844 C 54.632812 46.714844 55.296875 46.976562 55.84375 47.496094 C 55.867188 48.273438 55.84375 48.925781 55.765625 49.445312 C 55.710938 50.226562 55.582031 50.980469 55.375 51.707031 C 55.164062 52.433594 54.800781 53.460938 54.28125 54.789062 L 48.042969 70.347656 C 47.082031 72.738281 46.039062 74.429688 44.921875 75.414062 C 43.804688 76.402344 42.363281 76.898438 40.59375 76.898438 C 38.617188 76.898438 36.761719 76.207031 35.019531 74.832031 "/>
<path fill-rule="nonzero" fill="rgb(13.729858%, 12.159729%, 12.548828%)" fill-opacity="1" d="M 72.304688 62.117188 L 72.304688 53.1875 C 72.304688 51.734375 72.027344 50.632812 71.46875 49.894531 C 70.90625 49.152344 70.109375 48.78125 69.070312 48.78125 C 68.105469 48.78125 67.171875 49.101562 66.261719 49.738281 C 65.351562 50.375 64.585938 51.238281 63.960938 52.332031 L 63.960938 62.117188 C 63.960938 64.09375 64.0625 65.8125 64.273438 67.265625 L 58.773438 67.265625 C 58.980469 65.8125 59.085938 64.09375 59.085938 62.117188 L 59.085938 52.371094 C 59.085938 50.394531 58.980469 48.679688 58.773438 47.222656 L 64.273438 47.222656 C 64.117188 48.339844 64.011719 49.652344 63.960938 51.160156 C 64.816406 49.78125 65.941406 48.679688 67.332031 47.847656 C 68.722656 47.015625 70.160156 46.597656 71.640625 46.597656 C 73.382812 46.597656 74.742188 47.171875 75.71875 48.316406 C 76.691406 49.457031 77.179688 51.082031 77.179688 53.1875 L 77.179688 62.117188 C 77.179688 64.09375 77.285156 65.8125 77.492188 67.265625 L 71.992188 67.265625 C 72.203125 65.8125 72.304688 64.09375 72.304688 62.117188 "/>
<path fill-rule="nonzero" fill="rgb(13.729858%, 12.159729%, 12.548828%)" fill-opacity="1" d="M 95.175781 54.320312 C 95.125 52.003906 94.726562 50.265625 93.988281 49.09375 C 93.246094 47.925781 92.210938 47.339844 90.886719 47.339844 C 89.429688 47.339844 88.246094 47.96875 87.335938 49.230469 C 86.429688 50.492188 85.921875 52.1875 85.816406 54.320312 Z M 85.875 66.542969 C 84.304688 65.621094 83.046875 64.335938 82.113281 62.683594 C 81.175781 61.035156 80.707031 59.167969 80.707031 57.089844 C 80.707031 55.035156 81.183594 53.207031 82.132812 51.609375 C 83.082031 50.011719 84.339844 48.777344 85.914062 47.90625 C 87.488281 47.035156 89.183594 46.597656 91.003906 46.597656 C 92.640625 46.597656 94.164062 46.949219 95.566406 47.652344 C 96.96875 48.351562 98.101562 49.355469 98.957031 50.652344 C 99.816406 51.953125 100.269531 53.449219 100.324219 55.136719 L 85.777344 55.136719 L 85.777344 55.179688 C 85.777344 56.945312 86.078125 58.617188 86.675781 60.1875 C 87.273438 61.761719 88.128906 63.023438 89.25 63.96875 C 90.367188 64.921875 91.667969 65.394531 93.148438 65.394531 C 94.8125 65.394531 96.289062 64.828125 97.574219 63.699219 C 98.863281 62.566406 99.765625 61.054688 100.285156 59.15625 L 100.871094 59.273438 C 100.191406 61.976562 98.9375 64.09375 97.105469 65.628906 C 95.273438 67.164062 93.210938 67.929688 90.925781 67.929688 C 89.132812 67.929688 87.449219 67.46875 85.875 66.542969 "/>
<path fill-rule="nonzero" fill="rgb(13.729858%, 12.159729%, 12.548828%)" fill-opacity="1" d="M 104.359375 62.117188 L 104.359375 52.371094 C 104.359375 50.394531 104.253906 48.679688 104.046875 47.222656 L 109.585938 47.222656 C 109.375 48.679688 109.273438 50.394531 109.273438 52.371094 L 109.273438 62.117188 C 109.273438 64.09375 109.375 65.8125 109.585938 67.265625 L 104.046875 67.265625 C 104.253906 65.8125 104.359375 64.09375 104.359375 62.117188 M 106.816406 38.371094 L 109.976562 41.449219 L 106.816406 44.53125 L 103.65625 41.449219 Z M 106.816406 38.371094 "/>
<path fill-rule="nonzero" fill="rgb(13.729858%, 12.159729%, 12.548828%)" fill-opacity="1" d="M 116.835938 66.234375 C 115.835938 65.101562 115.335938 63.550781 115.335938 61.574219 L 115.335938 48.121094 L 112.253906 48.121094 L 112.253906 47.222656 L 112.722656 47.222656 C 113.839844 47.222656 114.660156 46.945312 115.179688 46.382812 C 115.699219 45.824219 116.03125 45.011719 116.175781 43.945312 C 116.316406 42.882812 116.390625 41.308594 116.390625 39.230469 L 121.300781 39.230469 C 121.300781 43.671875 119.445312 46.339844 115.726562 47.222656 L 126.839844 47.222656 L 126.839844 48.121094 L 120.210938 48.121094 L 120.210938 61.066406 C 120.210938 62.417969 120.46875 63.476562 120.988281 64.246094 C 121.511719 65.011719 122.210938 65.394531 123.097656 65.394531 C 124.214844 65.394531 125.125 64.855469 125.824219 63.777344 C 126.527344 62.699219 127.007812 61.117188 127.269531 59.039062 L 127.890625 59.039062 C 127.554688 61.949219 126.800781 64.160156 125.628906 65.667969 C 124.460938 67.175781 122.898438 67.929688 120.953125 67.929688 C 119.210938 67.929688 117.835938 67.363281 116.835938 66.234375 "/>
</svg>
